<svg xmlns="http://www.w3.org/2000/svg" viewBox="0 0 640 420" role="img" aria-labelledby="title desc">
  <title id="title">Producte web</title>
  <desc id="desc">Il·lustració amb servidors, proxy i flux de dades</desc>
  <defs>
    <linearGradient id="bg" x1="0%" x2="100%" y1="0%" y2="100%">
      <stop offset="0%" stop-color="#1f4457"/>
      <stop offset="100%" stop-color="#b9482f"/>
    </linearGradient>
  </defs>
  <rect width="640" height="420" rx="36" fill="#fff6eb"/>
  <rect x="42" y="42" width="556" height="336" rx="28" fill="url(#bg)"/>
  <rect x="92" y="168" width="124" height="88" rx="16" fill="#f4ebda"/>
  <rect x="262" y="104" width="116" height="88" rx="16" fill="#ffe0c2"/>
  <rect x="262" y="228" width="116" height="88" rx="16" fill="#ffe0c2"/>
  <rect x="426" y="168" width="124" height="88" rx="16" fill="#f4ebda"/>
  <path d="M216 212h46M378 148h48M378 272h48" stroke="#fff6eb" stroke-width="12" stroke-linecap="round"/>
  <circle cx="227" cy="212" r="10" fill="#ffd88d"/>
  <circle cx="413" cy="148" r="10" fill="#ffd88d"/>
  <circle cx="413" cy="272" r="10" fill="#ffd88d"/>
  <text x="154" y="220" text-anchor="middle" font-family="Georgia, serif" font-size="28" fill="#1f4457">Host</text>
  <text x="320" y="156" text-anchor="middle" font-family="Georgia, serif" font-size="24" fill="#7a2d1e">Proxy</text>
  <text x="320" y="280" text-anchor="middle" font-family="Georgia, serif" font-size="24" fill="#7a2d1e">LB</text>
  <text x="488" y="202" text-anchor="middle" font-family="Georgia, serif" font-size="24" fill="#1f4457">Web</text>
  <text x="488" y="232" text-anchor="middle" font-family="Georgia, serif" font-size="24" fill="#1f4457">Nodes</text>
</svg>
